<svg width="300" height="300" viewBox="0 0 300 300" fill="none" xmlns="http://www.w3.org/2000/svg">
<path d="M150 300C232.843 300 300 232.843 300 150C300 67.1573 232.843 0 150 0C67.1573 0 0 67.1573 0 150C0 232.843 67.1573 300 150 300Z" fill="url(#paint0_linear_618_174)"/>
<path d="M150.518 76.2545L76.2614 150.5L72.2462 146.487L146.527 72.2675L150.543 72.2427L150.518 76.2545ZM146.527 72.2675C147.618 71.1531 149.427 71.1531 150.543 72.2427C151.633 73.3571 151.633 75.165 150.518 76.2545L146.527 72.2675ZM221.577 151.291L146.527 76.2794L150.543 72.2427L225.593 147.28V151.291H221.577ZM225.593 147.28C226.707 148.394 226.707 150.177 225.593 151.291C224.477 152.406 222.693 152.406 221.577 151.291L225.593 147.28ZM147.321 221.5L221.577 147.28L225.593 151.291L151.335 225.511H147.321V221.5ZM151.335 225.511C150.22 226.626 148.411 226.626 147.321 225.511C146.205 224.421 146.205 222.614 147.321 221.5L151.335 225.511ZM76.2614 146.487L151.335 221.5L147.321 225.511L72.2462 150.5V146.487H76.2614ZM72.2462 150.5C71.1557 149.384 71.1557 147.601 72.2462 146.487C73.3616 145.373 75.1709 145.373 76.2614 146.487L72.2462 150.5Z" fill="#FEFEFE"/>
<path d="M165.191 132.719L161.201 136.706L158.053 133.584L154.906 130.564L151.757 127.617L148.634 124.769L145.537 121.996L142.463 119.296L139.414 116.72L136.391 114.219L133.417 111.841L130.491 109.539L127.591 107.359L124.767 105.304L121.99 103.323L119.264 101.49L116.637 99.7563L114.06 98.1466L111.581 96.6854L109.177 95.3235L106.871 94.11L104.666 93.0203L102.558 92.0545L100.551 91.2373L98.6924 90.5686L96.9574 90.0486L95.3712 89.677L93.9337 89.4295L92.6696 89.3303L91.579 89.3552L90.7116 89.479L90.0176 89.7019L89.5219 89.9495L89.1253 90.2715L85.1349 86.2843L86.4237 85.2195L87.886 84.4517L89.4723 83.9812L91.1081 83.7336L92.8432 83.684L94.6276 83.8326L96.5113 84.1297L98.4446 84.6003L100.477 85.2195L102.584 85.9623L104.79 86.8787L107.07 87.894L109.45 89.0827L111.878 90.3704L114.406 91.782L117.008 93.3423L119.686 95.0015L122.411 96.7846L125.213 98.6914L128.063 100.697L130.963 102.827L133.913 105.056L136.936 107.409L139.96 109.836L143.033 112.386L146.156 115.011L149.278 117.76L152.427 120.583L155.6 123.481L158.797 126.477L161.994 129.549L165.191 132.719ZM211.638 212.733L207.648 208.721L207.97 208.35L208.218 207.83L208.441 207.136L208.566 206.27L208.59 205.18L208.491 203.917L208.243 202.48L207.871 200.896L207.326 199.161L206.657 197.304L205.864 195.299L204.897 193.219L203.807 190.99L202.591 188.687L201.228 186.284L199.767 183.807L198.156 181.233L196.42 178.607L194.587 175.883L192.604 173.11L190.547 170.286L188.366 167.389L186.06 164.467L183.681 161.494L181.177 158.473L178.6 155.427L175.923 152.331L173.147 149.236L170.273 146.116L167.323 142.996L164.298 139.85L161.201 136.706L165.191 132.719L168.338 135.913L171.413 139.083L174.411 142.277L177.336 145.447L180.161 148.593L182.888 151.737L185.516 154.833L188.068 157.929L190.497 160.95L192.851 163.947L195.083 166.919L197.214 169.816L199.221 172.664L201.13 175.461L202.914 178.186L204.574 180.861L206.136 183.461L207.548 185.987L208.838 188.414L210.003 190.791L211.044 193.07L211.936 195.274L212.704 197.379L213.324 199.41L213.794 201.366L214.093 203.223L214.241 205.007L214.191 206.74L213.944 208.399L213.448 209.96L212.68 211.446L211.638 212.733ZM131.583 166.299L135.573 162.311L138.72 165.407L141.868 168.429L145.016 171.376L148.114 174.249L151.237 177.023L154.31 179.697L157.358 182.297L160.383 184.774L163.357 187.176L166.281 189.454L169.181 191.633L172.007 193.714L174.783 195.67L177.484 197.527L180.137 199.236L182.714 200.846L185.193 202.331L187.597 203.669L189.901 204.907L192.108 205.997L194.214 206.939L196.197 207.756L198.081 208.424L199.816 208.944L201.403 209.34L202.84 209.563L204.104 209.687L205.17 209.663L206.061 209.514L206.731 209.316L207.251 209.043L207.648 208.721L211.638 212.733L210.35 213.773L208.887 214.541L207.301 215.036L205.64 215.284L203.93 215.333L202.146 215.184L200.263 214.863L198.328 214.393L196.297 213.799L194.19 213.03L191.984 212.139L189.704 211.099L187.324 209.934L184.87 208.647L182.367 207.21L179.764 205.676L177.088 203.991L174.361 202.209L171.561 200.301L168.711 198.296L165.811 196.166L162.837 193.937L159.837 191.609L156.814 189.157L153.716 186.606L150.617 183.981L147.494 181.257L144.321 178.434L141.15 175.511L137.977 172.516L134.78 169.444L131.583 166.299ZM85.1349 86.2843L89.1253 90.2715L88.8032 90.6677L88.5553 91.163L88.3321 91.8565L88.2083 92.7232L88.1834 93.8127L88.2826 95.0757L88.5304 96.5122L88.9023 98.0972L89.4227 99.8306L90.092 101.713L90.9099 103.694L91.8764 105.799L92.9423 108.003L94.1816 110.306L95.5199 112.709L97.007 115.21L98.618 117.76L100.353 120.41L102.187 123.11L104.146 125.883L106.227 128.731L108.408 131.604L110.688 134.551L113.093 137.523L115.571 140.544L118.174 143.59L120.85 146.661L123.627 149.756L126.501 152.877L129.451 156.021L132.474 159.167L135.573 162.311L131.583 166.299L128.434 163.104L125.337 159.91L122.363 156.716L119.437 153.546L116.613 150.4L113.886 147.256L111.258 144.16L108.706 141.089L106.277 138.043L103.923 135.046L101.691 132.099L99.5599 129.177L97.5523 126.329L95.6439 123.53L93.8593 120.806L92.1987 118.131L90.6373 115.556L89.2244 113.03L87.9109 110.579L86.746 108.201L85.7297 105.923L84.8127 103.719L84.0691 101.614L83.4496 99.583L82.9786 97.6513L82.6812 95.7692L82.5324 93.9862L82.582 92.2775L82.8299 90.6182L83.3009 89.0332L84.0691 87.572L85.1349 86.2843Z" fill="#FEFEFE"/>
<path d="M131.358 132.421L134.531 129.251L137.728 126.18L140.926 123.184L144.098 120.286L147.246 117.463L150.394 114.714L153.491 112.089L156.566 109.539L159.614 107.111L162.613 104.759L165.563 102.53L168.463 100.4L171.337 98.3941L174.113 96.4871L176.864 94.7041L179.517 93.0448L182.118 91.4846L184.647 90.0731L187.1 88.7605L189.456 87.5967L191.736 86.5812L193.941 85.6649L196.048 84.9221L198.08 84.3029L200.038 83.8324L201.897 83.5352L203.681 83.3867L205.417 83.4114L207.077 83.6838L208.638 84.1544L210.126 84.9221L211.414 85.9869L207.4 89.9741L207.028 89.6521L206.507 89.4044L205.813 89.1815L204.946 89.0578L203.856 89.0329L202.591 89.1321L201.178 89.3797L199.567 89.7511L197.833 90.2712L195.974 90.9398L193.991 91.7571L191.884 92.7229L189.678 93.8125L187.348 95.0261L184.968 96.3634L182.466 97.8492L179.913 99.4589L177.261 101.193L174.56 103.026L171.783 104.981L168.933 107.061L166.058 109.241L163.108 111.544L160.134 113.921L157.11 116.423L154.061 118.999L150.988 121.697L147.89 124.471L144.767 127.32L141.644 130.266L138.497 133.287L135.348 136.409L131.358 132.421ZM84.8864 212.436L83.8454 211.123L83.0771 209.661L82.5814 208.101L82.3336 206.443L82.284 204.708L82.4327 202.926L82.7548 201.069L83.2259 199.113L83.8207 197.081L84.589 194.977L85.4813 192.773L86.5223 190.494L87.6871 188.117L88.976 185.69L90.4136 183.164L91.9501 180.563L93.6108 177.889L95.4201 175.164L97.3039 172.366L99.3361 169.519L101.467 166.621L103.698 163.649L106.028 160.653L108.481 157.607L111.01 154.536L113.663 151.44L116.388 148.296L119.214 145.15L122.114 141.98L125.113 138.786L128.186 135.616L131.358 132.421L135.348 136.409L132.226 139.553L129.203 142.699L126.253 145.819L123.403 148.939L120.627 152.034L117.926 155.13L115.347 158.176L112.844 161.197L110.464 164.169L108.184 167.091L106.003 169.989L103.921 172.811L101.963 175.586L100.104 178.31L98.3943 180.934L96.7833 183.51L95.2961 185.987L93.933 188.389L92.7186 190.693L91.628 192.896L90.6861 195.001L89.8683 197.007L89.199 198.864L88.6786 200.599L88.282 202.183L88.0341 203.62L87.935 204.883L87.9597 205.971L88.1084 206.839L88.3067 207.533L88.5794 208.053L88.8768 208.424L84.8864 212.436ZM164.943 166.001L161.746 169.147L158.573 172.217L155.376 175.214L152.203 178.137L149.056 180.96L145.907 183.684L142.81 186.308L139.736 188.86L136.687 191.287L133.688 193.639L130.738 195.869L127.814 197.999L124.964 200.004L122.163 201.91L119.437 203.694L116.786 205.377L114.183 206.913L111.654 208.35L109.201 209.637L106.846 210.801L104.566 211.841L102.36 212.733L100.228 213.476L98.2209 214.094L96.2629 214.566L94.404 214.887L92.5946 215.011L90.8844 214.987L89.2239 214.739L87.6623 214.243L86.1753 213.476L84.8864 212.436L88.8768 208.424L89.2734 208.746L89.7938 209.019L90.4631 209.216L91.3553 209.364H92.4211L93.6851 209.266L95.1227 209.043L96.7337 208.647L98.4687 208.127L100.327 207.459L102.31 206.641L104.417 205.7L106.623 204.61L108.928 203.371L111.333 202.034L113.836 200.549L116.388 198.938L119.04 197.206L121.743 195.373L124.518 193.416L127.368 191.336L130.243 189.157L133.193 186.878L136.167 184.476L139.166 181.976L142.24 179.4L145.313 176.724L148.411 173.951L151.534 171.079L154.657 168.131L157.804 165.11L160.953 161.99L164.943 166.001ZM211.414 85.9869L212.456 87.2747L213.224 88.7358L213.72 90.3208L213.968 91.9552L213.993 93.6888L213.868 95.4718L213.547 97.3539L213.076 99.2855L212.456 101.316L211.713 103.421L210.82 105.626L209.778 107.904L208.614 110.281L207.326 112.733L205.888 115.234L204.351 117.834L202.666 120.509L200.881 123.233L198.997 126.031L196.966 128.88L194.834 131.801L192.603 134.749L190.273 137.746L187.82 140.791L185.291 143.863L182.64 146.957L179.913 150.103L177.087 153.249L174.187 156.419L171.188 159.613L168.116 162.807L164.943 166.001L160.953 161.99L164.076 158.844L167.098 155.724L170.048 152.58L172.898 149.459L175.674 146.363L178.351 143.293L180.954 140.247L183.433 137.226L185.837 134.253L188.117 131.307L190.298 128.434L192.38 125.586L194.338 122.811L196.197 120.113L197.907 117.463L199.518 114.887L201.006 112.411L202.368 110.009L203.583 107.706L204.673 105.501L205.616 103.397L206.433 101.416L207.103 99.5332L207.623 97.7996L208.02 96.2148L208.243 94.7784L208.366 93.5154L208.341 92.4258L208.193 91.5589L207.994 90.8655L207.721 90.3702L207.4 89.9741L211.414 85.9869Z" fill="#FEFEFE"/>
<path d="M148.139 157.533C152.833 157.533 156.64 153.807 156.64 149.212C156.64 144.616 152.833 140.89 148.139 140.89C143.443 140.89 139.637 144.616 139.637 149.212C139.637 153.807 143.443 157.533 148.139 157.533Z" fill="#FEFEFE"/>
<defs>
<linearGradient id="paint0_linear_618_174" x1="300.006" y1="150.003" x2="0" y2="150.003" gradientUnits="userSpaceOnUse">
<stop stop-color="#D717FF"/>
<stop offset="1" stop-color="#3377FF"/>
</linearGradient>
</defs>
</svg>
