<svg width="22" height="21" viewBox="0 0 22 21" fill="none" xmlns="http://www.w3.org/2000/svg">
<path d="M10.65 21C16.5318 21 21.3 16.299 21.3 10.5C21.3 4.70101 16.5318 0 10.65 0C4.76817 0 0 4.70101 0 10.5C0 16.299 4.76817 21 10.65 21Z" fill="url(#paint0_linear_618_174)"/>
<path d="M10.6868 5.33782L5.41456 10.535L5.12948 10.2541L10.4034 5.05873L10.6885 5.05699L10.6868 5.33782ZM10.4034 5.05873C10.4809 4.98072 10.6093 4.98072 10.6885 5.05699C10.7659 5.135 10.7659 5.26155 10.6868 5.33782L10.4034 5.05873ZM15.732 10.5904L10.4034 5.33956L10.6885 5.05699L16.0171 10.3096V10.5904H15.732ZM16.0171 10.3096C16.0962 10.3876 16.0962 10.5124 16.0171 10.5904C15.9379 10.6684 15.8112 10.6684 15.732 10.5904L16.0171 10.3096ZM10.4598 15.505L15.732 10.3096L16.0171 10.5904L10.7448 15.7858H10.4598V15.505ZM10.7448 15.7858C10.6656 15.8638 10.5372 15.8638 10.4598 15.7858C10.3806 15.7095 10.3806 15.583 10.4598 15.505L10.7448 15.7858ZM5.41456 10.2541L10.7448 15.505L10.4598 15.7858L5.12948 10.535V10.2541H5.41456ZM5.12948 10.535C5.05206 10.4569 5.05206 10.3321 5.12948 10.2541C5.20867 10.1761 5.33713 10.1761 5.41456 10.2541L5.12948 10.535Z" fill="#FEFEFE"/>
<path d="M11.7286 9.2903L11.4453 9.5694L11.2217 9.3509L10.9983 9.1395L10.7747 8.9332L10.553 8.7338L10.3331 8.5397L10.1149 8.3507L9.8984 8.1704L9.68378 7.9953L9.47261 7.8289L9.26488 7.6677L9.05898 7.5151L8.85846 7.3713L8.66128 7.2326L8.46775 7.1043L8.28123 6.98294L8.09825 6.87026L7.92227 6.76798L7.75157 6.67264L7.58786 6.5877L7.43126 6.51142L7.28165 6.44381L7.13914 6.38661L7.00716 6.3398L6.88398 6.3034L6.77135 6.27739L6.66929 6.26006L6.57954 6.25312L6.50211 6.25486L6.44052 6.26353L6.39125 6.27913L6.35605 6.29646L6.3279 6.319L6.04457 6.0399L6.13608 5.96536L6.23991 5.91162L6.35253 5.87868L6.46868 5.86135L6.59186 5.85788L6.71856 5.86828L6.8523 5.88908L6.98956 5.92202L7.13387 5.96536L7.28347 6.01736L7.44008 6.08151L7.60196 6.15258L7.77094 6.23579L7.94337 6.32593L8.1228 6.42474L8.3076 6.53396L8.49768 6.6501L8.6912 6.77492L8.8901 6.9084L9.09245 7.0488L9.29835 7.1979L9.5078 7.3539L9.72243 7.5186L9.93715 7.6885L10.1553 7.867L10.377 8.0508L10.5988 8.2432L10.8223 8.4408L11.0476 8.6437L11.2746 8.8534L11.5016 9.0684L11.7286 9.2903ZM15.0263 14.8913L14.743 14.6105L14.7659 14.5845L14.7835 14.5481L14.7993 14.4995L14.8082 14.4389L14.8099 14.3626L14.8029 14.2742L14.7852 14.1736L14.7589 14.0627L14.7201 13.9413L14.6726 13.8113L14.6164 13.6709L14.5477 13.5253L14.4703 13.3693L14.384 13.2081L14.2872 13.0399L14.1835 12.8665L14.069 12.6863L13.9458 12.5025L13.8157 12.3118L13.6749 12.1177L13.5288 11.92L13.374 11.7172L13.2103 11.5127L13.0414 11.3046L12.8636 11.0931L12.6806 10.8799L12.4905 10.6632L12.2934 10.4465L12.0894 10.2281L11.8799 10.0097L11.6652 9.7895L11.4453 9.5694L11.7286 9.2903L11.952 9.5139L12.1703 9.7358L12.3832 9.9594L12.5908 10.1813L12.7915 10.4015L12.9851 10.6216L13.1716 10.8383L13.3529 11.055L13.5253 11.2665L13.6924 11.4763L13.8509 11.6843L14.0022 11.8871L14.1447 12.0865L14.2802 12.2823L14.4069 12.473L14.5248 12.6603L14.6356 12.8423L14.7359 13.0191L14.8275 13.189L14.9102 13.3554L14.9841 13.5149L15.0474 13.6692L15.102 13.8165L15.146 13.9587L15.1794 14.0956L15.2006 14.2256L15.2111 14.3505L15.2076 14.4718L15.19 14.5879L15.1548 14.6972L15.1003 14.8012L15.0263 14.8913ZM9.34237 11.6409L9.62566 11.3618L9.84911 11.5785L10.0727 11.79L10.2961 11.9963L10.5161 12.1974L10.7378 12.3916L10.956 12.5788L11.1724 12.7608L11.3872 12.9342L11.5983 13.1023L11.806 13.2618L12.0119 13.4143L12.2125 13.56L12.4096 13.6969L12.6014 13.8269L12.7897 13.9465L12.9727 14.0592L13.1487 14.1632L13.3194 14.2568L13.483 14.3435L13.6397 14.4198L13.7892 14.4857L13.93 14.5429L14.0638 14.5897L14.1869 14.6261L14.2996 14.6538L14.4016 14.6694L14.4914 14.6781L14.5671 14.6764L14.6304 14.666L14.6779 14.6521L14.7148 14.633L14.743 14.6105L15.0263 14.8913L14.9348 14.9641L14.831 15.0179L14.7184 15.0525L14.6004 15.0699L14.479 15.0733L14.3523 15.0629L14.2187 15.0404L14.0813 15.0075L13.9371 14.9659L13.7875 14.9121L13.6309 14.8497L13.469 14.7769L13.3 14.6954L13.1258 14.6053L12.9481 14.5047L12.7633 14.3973L12.5733 14.2794L12.3797 14.1546L12.1809 14.0211L11.9785 13.8807L11.7726 13.7316L11.5614 13.5756L11.3484 13.4126L11.1338 13.241L10.9138 13.0624L10.6938 12.8787L10.4721 12.688L10.2468 12.4904L10.0216 12.2858L9.79637 12.0761L9.56937 11.8611L9.34237 11.6409ZM6.04457 6.0399L6.3279 6.319L6.30502 6.34674L6.28743 6.38141L6.27158 6.42995L6.26279 6.49062L6.26102 6.56689L6.26806 6.6553L6.28566 6.75585L6.31206 6.8668L6.34901 6.98814L6.39653 7.1199L6.4546 7.2586L6.52323 7.4059L6.5989 7.5602L6.68689 7.7214L6.78191 7.8896L6.8875 8.0647L7.00188 8.2432L7.12504 8.4287L7.25528 8.6177L7.39434 8.8118L7.54212 9.0112L7.697 9.2123L7.85888 9.4186L8.02958 9.6266L8.20556 9.8381L8.39036 10.0513L8.58034 10.2663L8.77752 10.4829L8.98159 10.7014L9.19104 10.9215L9.40566 11.1417L9.62566 11.3618L9.34237 11.6409L9.11882 11.4173L8.89893 11.1937L8.68775 10.9701L8.48003 10.7482L8.2795 10.528L8.08588 10.3079L7.89935 10.0912L7.7181 9.8762L7.54567 9.663L7.37851 9.4532L7.22008 9.2469L7.06875 9.0424L6.92621 8.843L6.79071 8.6471L6.66401 8.4564L6.54611 8.2692L6.43525 8.0889L6.33493 7.9121L6.24167 7.7405L6.15897 7.5741L6.08681 7.4146L6.0217 7.2603L5.96891 7.113L5.92492 6.97081L5.89148 6.83559L5.87036 6.70384L5.8598 6.57903L5.86332 6.45942L5.88092 6.34327L5.91436 6.23232L5.96891 6.13004L6.04457 6.0399Z" fill="#FEFEFE"/>
<path d="M9.32645 9.2695L9.55172 9.0476L9.77872 8.8326L10.0057 8.6229L10.231 8.42L10.4544 8.2224L10.678 8.03L10.8979 7.8462L11.1162 7.6677L11.3326 7.4978L11.5455 7.3331L11.755 7.1771L11.9609 7.028L12.1649 6.88759L12.362 6.7541L12.5574 6.62929L12.7457 6.51314L12.9304 6.40393L13.1099 6.30512L13.2841 6.21324L13.4513 6.13177L13.6132 6.06069L13.7698 5.99655L13.9194 5.94455L14.0637 5.90121L14.2027 5.86827L14.3347 5.84747L14.4614 5.83707L14.5846 5.8388L14.7025 5.85787L14.8133 5.89081L14.9189 5.94455L15.0104 6.01909L14.7254 6.29819L14.699 6.27565L14.662 6.25831L14.6127 6.24271L14.5511 6.23405L14.4737 6.23231L14.384 6.23925L14.2837 6.25658L14.1693 6.28258L14.0461 6.31899L13.9142 6.36579L13.7734 6.423L13.6238 6.49061L13.4672 6.56688L13.3017 6.65183L13.1328 6.74544L12.9551 6.84945L12.7738 6.96213L12.5856 7.0835L12.3938 7.2118L12.1966 7.3487L11.9942 7.4943L11.7901 7.6469L11.5807 7.8081L11.3695 7.9745L11.1548 8.1496L10.9384 8.3299L10.7202 8.5188L10.5002 8.713L10.2785 8.9124L10.0567 9.1186L9.83329 9.3301L9.60974 9.5486L9.32645 9.2695ZM6.02694 14.8705L5.95303 14.7786L5.89848 14.6763L5.86328 14.5671L5.84568 14.451L5.84216 14.3296L5.85272 14.2048L5.87559 14.0748L5.90904 13.9379L5.95127 13.7957L6.00582 13.6484L6.06917 13.4941L6.14308 13.3346L6.22579 13.1682L6.3173 12.9983L6.41936 12.8215L6.52846 12.6394L6.64637 12.4522L6.77483 12.2615L6.90857 12.0656L7.05287 11.8663L7.20416 11.6635L7.36259 11.4554L7.52802 11.2457L7.70217 11.0325L7.8817 10.8175L8.07005 10.6008L8.26358 10.3807L8.4642 10.1605L8.6701 9.9386L8.883 9.715L9.10117 9.4931L9.32645 9.2695L9.60974 9.5486L9.38802 9.7687L9.17339 9.9889L8.96394 10.2073L8.76159 10.4257L8.56452 10.6424L8.37272 10.8591L8.18964 11.0723L8.01193 11.2838L7.84295 11.4918L7.68107 11.6964L7.52619 11.8992L7.37841 12.0968L7.23935 12.291L7.10739 12.4817L6.98599 12.6654L6.87161 12.8457L6.76603 13.0191L6.66924 13.1872L6.58302 13.3485L6.50559 13.5027L6.43872 13.6501L6.38065 13.7905L6.33313 13.9205L6.29618 14.0419L6.26802 14.1528L6.25042 14.2534L6.24338 14.3418L6.24514 14.418L6.2557 14.4787L6.26978 14.5273L6.28914 14.5637L6.31026 14.5897L6.02694 14.8705ZM11.7109 11.6201L11.4839 11.8403L11.2587 12.0552L11.0317 12.265L10.8064 12.4696L10.5829 12.6672L10.3594 12.8579L10.1395 13.0416L9.92123 13.2202L9.70478 13.3901L9.49188 13.5547L9.28243 13.7108L9.0748 13.8599L8.87245 14.0003L8.67355 14.1337L8.48003 14.2586L8.29178 14.3764L8.10697 14.4839L7.92744 14.5845L7.75329 14.6746L7.58604 14.7561L7.42416 14.8289L7.26755 14.8913L7.11622 14.9433L6.97368 14.9866L6.83466 15.0196L6.70268 15.0421L6.57421 15.0508L6.45279 15.0491L6.33489 15.0317L6.22402 14.997L6.11844 14.9433L6.02694 14.8705L6.31026 14.5897L6.33841 14.6122L6.37536 14.6313L6.42288 14.6451L6.48623 14.6555H6.5619L6.65164 14.6486L6.75371 14.633L6.86809 14.6053L6.99128 14.5689L7.12322 14.5221L7.264 14.4649L7.41361 14.399L7.57021 14.3227L7.73392 14.236L7.90462 14.1424L8.08233 14.0384L8.26358 13.9257L8.45183 13.8044L8.64373 13.6761L8.84081 13.5391L9.04316 13.3935L9.24723 13.241L9.45668 13.0815L9.66786 12.9133L9.88076 12.7383L10.099 12.558L10.3172 12.3707L10.5372 12.1766L10.7589 11.9755L10.9806 11.7692L11.2041 11.5577L11.4276 11.3393L11.7109 11.6201ZM15.0104 6.01909L15.0843 6.10923L15.1389 6.21151L15.1741 6.32246L15.1918 6.43687L15.1935 6.55822L15.1847 6.68303L15.1618 6.81478L15.1284 6.94999L15.0843 7.0921L15.0316 7.2395L14.9682 7.3938L14.8943 7.5533L14.8116 7.7197L14.7201 7.8913L14.6181 8.0664L14.5089 8.2484L14.3893 8.4356L14.2626 8.6263L14.1288 8.8222L13.9846 9.0216L13.8332 9.2261L13.6748 9.4324L13.5094 9.6422L13.3352 9.8554L13.1557 10.0704L12.9674 10.287L12.7738 10.5072L12.5732 10.7274L12.3673 10.9493L12.1544 11.1729L11.9362 11.3965L11.7109 11.6201L11.4276 11.3393L11.6494 11.1191L11.864 10.9007L12.0734 10.6806L12.2758 10.4621L12.4729 10.2454L12.6629 10.0305L12.8477 9.8173L13.0237 9.6058L13.1944 9.3977L13.3563 9.1915L13.5112 8.9904L13.659 8.791L13.798 8.5968L13.93 8.4079L14.0514 8.2224L14.1658 8.0421L14.2714 7.8688L14.3682 7.7006L14.4544 7.5394L14.5318 7.3851L14.5987 7.2378L14.6567 7.0991L14.7043 6.96733L14.7412 6.84598L14.7694 6.73504L14.7852 6.63449L14.794 6.54608L14.7922 6.46981L14.7817 6.40913L14.7676 6.36059L14.7482 6.32592L14.7254 6.29819L15.0104 6.01909Z" fill="#FEFEFE"/>
<path d="M10.5178 11.0273C10.8511 11.0273 11.1214 10.7665 11.1214 10.4448C11.1214 10.1231 10.8511 9.8623 10.5178 9.8623C10.1845 9.8623 9.91425 10.1231 9.91425 10.4448C9.91425 10.7665 10.1845 11.0273 10.5178 11.0273Z" fill="#FEFEFE"/>
<defs>
<linearGradient id="paint0_linear_618_174" x1="21.3004" y1="10.5002" x2="0" y2="10.5002" gradientUnits="userSpaceOnUse">
<stop stop-color="#D717FF"/>
<stop offset="1" stop-color="#3377FF"/>
</linearGradient>
</defs>
</svg>
