<svg width="512" height="512" viewBox="0 0 512 512" fill="none" xmlns="http://www.w3.org/2000/svg">
<path d="M256 512C397.385 512 512 397.385 512 256C512 114.615 397.385 0 256 0C114.615 0 0 114.615 0 256C0 397.385 114.615 512 256 512Z" fill="white"/>
<path fill-rule="evenodd" clip-rule="evenodd" d="M233.899 126C233.899 120.477 229.422 116 223.899 116H200.2C194.677 116 190.2 120.477 190.2 126V149.698C190.2 155.221 185.723 159.698 180.2 159.698H158C152.477 159.698 148 164.176 148 169.698V315.753C148 321.275 152.477 325.753 158 325.753H181.699C187.221 325.753 191.699 321.275 191.699 315.753V169.699C191.699 164.176 196.176 159.699 201.699 159.699H223.899C229.422 159.699 233.899 155.221 233.899 149.699V126ZM321.296 126C321.296 120.477 316.818 116 311.296 116H287.597C282.074 116 277.597 120.477 277.597 126V149.699C277.597 155.221 282.074 159.699 287.597 159.699H309.797C315.32 159.699 319.797 164.176 319.797 169.699V315.753C319.797 321.275 324.275 325.753 329.797 325.753H353.496C359.019 325.753 363.496 321.275 363.496 315.753V169.698C363.496 164.176 359.019 159.698 353.496 159.698H331.296C325.773 159.698 321.296 155.221 321.296 149.698V126ZM277.597 209.651C277.597 204.129 273.12 199.651 267.597 199.651H243.899C238.376 199.651 233.899 204.129 233.899 209.651V274.551C233.899 280.074 238.376 284.551 243.899 284.551H267.597C273.12 284.551 277.597 280.074 277.597 274.551V209.651Z" fill="#5353D3"/>
<path d="M148 367.422H160.416C165.675 367.422 168.52 370.295 168.52 374.431C168.559 375.724 168.222 376.998 167.552 378.088C166.883 379.177 165.913 380.031 164.77 380.536V380.67C166.249 381.138 167.539 382.098 168.443 383.404C169.346 384.71 169.813 386.288 169.77 387.897C169.77 392.521 166.691 396.156 161.105 396.156H148V367.422ZM160.502 379.099C162.485 379.099 163.907 377.573 163.907 375.252C163.907 372.931 162.485 371.404 160.502 371.404H152.625V379.099H160.502ZM161.062 392.206C163.433 392.206 165.158 390.321 165.158 387.583C165.158 384.845 163.433 383.004 161.062 383.004H152.625V392.206H161.062Z" fill="#5353D3"/>
<path d="M175.547 370.84H172.948V366.505H180.104V396.137H175.535L175.547 370.84Z" fill="#5353D3"/>
<path d="M184.335 385.518C184.335 379.01 188.954 374.207 195.334 374.207C201.714 374.207 206.37 378.965 206.37 385.518C206.37 392.072 201.757 396.785 195.334 396.785C188.911 396.785 184.335 392.027 184.335 385.518ZM194.127 392.521H196.59C199.392 392.521 201.85 389.423 201.85 385.518C201.85 381.613 199.386 378.464 196.59 378.464H194.127C191.325 378.464 188.868 381.671 188.868 385.518C188.868 389.366 191.325 392.521 194.127 392.521Z" fill="#5353D3"/>
<path d="M209.338 385.473C209.338 378.83 213.742 374.207 220.079 374.207C225.166 374.207 229.175 376.945 229.822 382.543H225.381C224.95 379.715 223.01 378.458 221.027 378.458H218.872C216.113 378.458 213.871 381.6 213.871 385.512C213.871 389.423 216.113 392.604 218.872 392.604H221.027C222.129 392.608 223.193 392.182 224.007 391.409C224.821 390.636 225.327 389.572 225.424 388.429H229.865C229.249 393.951 225.209 396.823 220.011 396.823C213.692 396.785 209.338 392.117 209.338 385.473Z" fill="#5353D3"/>
<path d="M233.954 366.505H238.48V382.851H241.763L247.884 374.816H253.057L245.513 384.736L253.402 396.137H247.971L241.375 386.711H238.48V396.137H233.954V366.505Z" fill="#5353D3"/>
<path d="M255.472 389.738H259.826C260.041 391.623 261.162 392.835 263.521 392.835H266.372C268.398 392.835 269.347 391.757 269.347 390.321C269.347 388.885 268.571 388.032 266.717 387.756L261.926 387.115C257.873 386.621 256.063 384.107 256.063 380.831C256.063 376.522 259.142 374.187 264.642 374.187C269.907 374.187 273.097 376.387 273.263 381.28H268.909C268.694 379.439 267.961 378.137 265.719 378.137H263.127C261.187 378.137 260.281 379.215 260.281 380.606C260.281 381.998 261.144 382.94 262.997 383.21L267.832 383.851C271.755 384.345 273.565 386.544 273.565 389.956C273.565 394.355 270.763 396.778 264.555 396.778C258.551 396.785 255.638 394.406 255.472 389.738Z" fill="#5353D3"/>
<path d="M276.41 385.473C276.41 378.83 280.808 374.207 287.151 374.207C292.238 374.207 296.247 376.945 296.894 382.543H292.453C292.022 379.715 290.082 378.458 288.099 378.458H285.944C283.179 378.458 280.937 381.6 280.937 385.512C280.937 389.423 283.179 392.604 285.944 392.604H288.099C289.201 392.608 290.265 392.182 291.079 391.409C291.893 390.636 292.399 389.572 292.496 388.429H296.937C296.321 393.951 292.281 396.823 287.083 396.823C280.771 396.785 276.41 392.117 276.41 385.473Z" fill="#5353D3"/>
<path d="M299.813 385.518C299.813 379.01 304.425 374.207 310.806 374.207C317.186 374.207 321.848 378.965 321.848 385.518C321.848 392.072 317.235 396.785 310.806 396.785C304.376 396.785 299.813 392.027 299.813 385.518ZM309.599 392.521H312.062C314.864 392.521 317.327 389.423 317.327 385.518C317.327 381.613 314.864 378.464 312.062 378.464H309.599C306.796 378.464 304.339 381.671 304.339 385.518C304.339 389.366 306.809 392.521 309.611 392.521H309.599Z" fill="#5353D3"/>
<path d="M325.604 388.256V374.841H330.131V387.455C330.131 390.552 331.64 392.392 333.623 392.392H336.086C338.199 392.392 340.095 390.372 340.095 387.455V374.841H344.628V396.163H340.225V393.245C338.993 395.445 336.819 396.791 333.5 396.791C328.536 396.785 325.604 393.777 325.604 388.256Z" fill="#5353D3"/>
<path d="M352.16 391.174V378.99H348.194V374.841H352.16V368.865H356.729V374.841H362.075V378.971H356.729V389.834C356.729 391.225 357.16 391.899 358.626 391.899H362.247V396.163H357.321C354.007 396.156 352.16 394.361 352.16 391.174Z" fill="#5353D3"/>
</svg>
