<svg width="512" height="512" viewBox="0 0 512 512" fill="none" xmlns="http://www.w3.org/2000/svg">
<path d="M256 512C397.385 512 512 397.385 512 256C512 114.615 397.385 0 256 0C114.615 0 0 114.615 0 256C0 397.385 114.615 512 256 512Z" fill="#CDF160"/>
<mask id="mask0_620_189" style="mask-type:luminance" maskUnits="userSpaceOnUse" x="184" y="112" width="144" height="145">
<path d="M327.558 112H184V256.059H327.558V112Z" fill="white"/>
</mask>
<g mask="url(#mask0_620_189)">
<path fill-rule="evenodd" clip-rule="evenodd" d="M188.66 145.34L184 150.777V251.066L188.66 256.059H322.37L327.558 251.176V148.325L322.651 144.022H285.878V143.194L290.63 140.387V116.536L285.98 112L188.66 145.34Z" fill="black"/>
<path fill-rule="evenodd" clip-rule="evenodd" d="M265.277 214.901L281.262 215.025C281.6 215.027 281.846 215.343 281.766 215.67L277.733 232.038C277.626 232.469 277.064 232.579 276.802 232.218L272.968 226.927C269.053 229.594 262.115 233.041 252.428 233.009C239.29 232.965 229.619 225.946 227.947 224.624C227.783 224.492 227.718 224.284 227.819 224.091C228.334 223.109 230.47 219.205 231.086 217.853C231.2 217.603 231.496 217.516 231.73 217.655C233.798 218.905 242.968 224.105 252.138 224.105C258.721 224.105 264.414 221.961 268.053 220.147L264.849 215.728C264.599 215.383 264.849 214.898 265.277 214.901ZM244.385 160.246C253.251 162.723 253.147 170.146 252.751 173.663C252.519 175.734 251.661 178.209 251.319 179.139C251.235 179.367 251.019 179.515 250.775 179.511L239.493 179.351C239.339 179.349 239.233 179.195 239.299 179.056C239.709 178.175 240.903 175.446 241.285 172.627C241.719 169.427 240.079 167.986 237.725 169.637C235.229 171.384 232.993 175.885 231.577 184.604C230.219 192.964 232.335 196.352 235.167 196.748C237.811 197.117 240.399 195.661 242.721 191.659C243.951 189.539 244.641 187.446 244.909 186.538C244.975 186.313 245.247 186.247 245.425 186.4L250.159 190.463C250.357 190.633 250.447 190.884 250.389 191.138C250.135 192.254 249.319 195.462 247.849 198.051C246.239 200.888 240.159 209.422 228.703 206.232C214.79 202.355 217.808 182.266 221.794 172.715C225.782 163.165 234.429 157.463 244.385 160.246ZM284.604 160.246C293.47 162.723 293.365 170.146 292.969 173.663C292.737 175.734 291.88 178.209 291.537 179.139C291.454 179.367 291.238 179.515 290.994 179.511L279.712 179.351C279.556 179.349 279.452 179.195 279.518 179.056C279.928 178.175 281.122 175.446 281.504 172.627C281.938 169.427 280.298 167.986 277.942 169.637C275.448 171.384 273.21 175.885 271.796 184.604C270.438 192.964 272.554 196.352 275.384 196.748C278.03 197.117 280.618 195.661 282.938 191.659C284.17 189.539 284.86 187.446 285.128 186.538C285.194 186.313 285.466 186.247 285.644 186.4L290.377 190.463C290.575 190.633 290.666 190.884 290.608 191.138C290.352 192.254 289.538 195.462 288.068 198.051C286.458 200.888 280.378 209.422 268.922 206.232C255.008 202.355 258.026 182.266 262.012 172.715C266 163.165 274.648 157.463 284.604 160.246Z" fill="white"/>
</g>
<path d="M139.482 335.504C139.482 335.504 138.473 336.761 137.265 337.64C130.525 342.547 121.597 345 110.48 345C102.142 345 94.8469 343.435 88.5937 340.307C82.3405 337.178 77.5114 332.591 74.1069 326.547C70.7024 320.502 69 313.32 69 305C69 297.107 70.6327 290.173 73.8984 284.2C77.2335 278.156 82.0276 273.462 88.2811 270.12C94.5343 266.707 101.899 265 110.376 265C131.012 265 143.553 273.711 148 291.133H130.819C129.083 286.085 127.156 284.485 123.82 282.28C120.555 280.076 116.073 278.973 110.376 278.973C102.941 278.973 97.0704 281.284 92.7625 285.907C88.4546 290.529 86.3008 296.893 86.3008 305C86.3008 313.178 88.4546 319.578 92.7625 324.2C97.0704 328.751 103.046 331.027 110.689 331.027C116.872 331.027 121.736 329.853 125.28 327.507C128.823 325.16 131.186 321.569 132.367 316.733L139.482 335.504Z" fill="black"/>
<path d="M191.116 342L177.708 304.596L164.297 342H148.794L133 298.524H149.342L157.804 325.774L171.316 287.422H184.937L198.45 325.879L210.496 287H226L206.62 342H191.116Z" fill="black"/>
<path d="M276.746 342.529C272.651 342.529 269.332 339.184 269.332 335.069C266.184 338.151 262.798 340.427 259.172 341.899C255.617 343.3 251.511 344 246.857 344C239.812 344 234.406 342.564 230.645 339.692C226.881 336.75 225 332.582 225 327.188C225 321.164 227.464 316.681 232.39 313.739C237.315 310.797 245.08 309.186 255.683 308.906L268.82 308.59V306.489C268.82 303.407 267.723 301.06 265.534 299.449C263.345 297.768 260.234 296.927 256.197 296.927C248.466 296.927 241.588 298.798 241.588 304.609H227.322C227.322 298.704 232.456 292.655 237.109 289.993C241.829 287.331 248.363 286 256.711 286C274.565 286 283.494 293.215 283.494 307.645V325.087V332.26C283.494 332.386 283.597 332.489 283.722 332.489H289V342.529H276.746ZM268.82 317.837L255.992 318.152C250.449 318.292 246.38 319.028 243.779 320.359C241.249 321.62 239.982 323.546 239.982 326.137C239.982 328.379 240.907 330.095 242.754 331.286C244.668 332.477 247.405 333.072 250.963 333.072C253.836 333.072 256.469 332.722 258.864 332.022C261.259 331.251 263.278 330.165 264.92 328.764C267.52 326.663 268.82 324.001 268.82 320.779V317.837Z" fill="black"/>
<path d="M295 342V267H311V342H295Z" fill="black"/>
<path d="M317 342V267H332V342H317Z" fill="black"/>
<path d="M350.693 318.769C350.761 321.491 351.492 323.899 352.879 325.993C354.341 328.087 356.318 329.727 358.82 330.914C361.39 332.1 364.343 332.693 367.677 332.693C375.804 332.693 380.841 330.216 382.785 325.26H397.269C395.811 331.612 392.581 336.323 387.577 339.394C382.647 342.465 375.84 344 367.155 344C357.291 344 349.616 341.522 344.127 336.567C338.708 331.612 336 324.667 336 315.733C336 310.01 337.25 304.914 339.752 300.448C342.321 295.911 345.969 292.386 350.693 289.874C355.486 287.291 361.076 286 367.468 286C377.194 286 384.695 288.478 389.975 293.433C395.323 298.319 398 305.194 398 314.058V318.769H350.693ZM383.515 309.242C383.377 305.403 381.882 302.437 379.033 300.343C376.187 298.179 372.227 297.097 367.155 297.097C362.848 297.097 359.167 298.249 356.109 300.553C353.125 302.856 351.455 305.752 351.108 309.242H383.515Z" fill="black"/>
<path d="M444 340.705C439.087 342.235 433.93 343 428.527 343C421.58 343 416.528 341.47 413.368 338.41C410.21 335.28 408.632 330.342 408.632 323.596V299.08H398V287.501H408.632V273H424.315V287.501H442.316V299.08H424.315V323.075C424.315 325.787 424.982 327.804 426.316 329.125C427.649 330.377 429.755 331.003 432.63 331.003C435.648 331.003 438.737 330.516 441.894 329.542L444 340.705Z" fill="black"/>
</svg>
