<svg width="512" height="512" viewBox="0 0 512 512" fill="none" xmlns="http://www.w3.org/2000/svg">
<g filter="url(#filter0_i_619_169)">
<path d="M256 512C397.385 512 512 397.385 512 256C512 114.615 397.385 0 256 0C114.615 0 0 114.615 0 256C0 397.385 114.615 512 256 512Z" fill="url(#paint0_linear_619_169)"/>
<path d="M259.5 95.9613L95.9767 259.459L87.1343 250.624L250.713 87.181L259.555 87.1264L259.5 95.9613ZM250.713 87.181C253.114 84.7267 257.098 84.7267 259.555 87.1264C261.956 89.5807 261.956 93.5615 259.5 95.9613L250.713 87.181ZM415.982 261.204L250.713 96.0158L259.555 87.1264L424.824 252.369V261.204H415.982ZM424.824 252.369C427.283 254.823 427.283 258.75 424.824 261.204C422.368 263.658 418.439 263.658 415.982 261.204L424.824 252.369ZM252.459 415.812L415.982 252.369L424.824 261.204L261.301 424.647H252.459V415.812ZM261.301 424.647C258.845 427.103 254.861 427.103 252.459 424.647C250.003 422.248 250.003 418.266 252.459 415.812L261.301 424.647ZM95.9767 250.624L261.301 415.812L252.459 424.647L87.1343 259.459V250.624H95.9767ZM87.1343 259.459C84.7331 257.005 84.7331 253.078 87.1343 250.624C89.5904 248.17 93.575 248.17 95.9767 250.624L87.1343 259.459Z" fill="url(#paint1_linear_619_169)"/>
<path d="M291.812 220.302L283.024 229.082L276.093 222.21L269.161 215.557L262.229 209.068L255.352 202.796L248.529 196.688L241.761 190.744L235.048 185.072L228.389 179.564L221.839 174.329L215.399 169.257L209.013 164.457L202.791 159.931L196.678 155.568L190.674 151.533L184.889 147.715L179.212 144.17L173.754 140.953L168.46 137.953L163.384 135.281L158.526 132.882L153.887 130.754L149.466 128.955L145.372 127.482L141.552 126.337L138.058 125.519L134.893 124.974L132.109 124.756L129.707 124.81L127.797 125.083L126.269 125.574L125.178 126.119L124.304 126.828L115.516 118.048L118.355 115.703L121.575 114.012L125.068 112.976L128.671 112.431L132.491 112.322L136.421 112.649L140.569 113.303L144.827 114.339L149.302 115.703L153.942 117.339L158.799 119.357L163.82 121.593L169.06 124.21L174.409 127.046L179.976 130.155L185.707 133.59L191.602 137.245L197.606 141.171L203.773 145.37L210.05 149.788L216.436 154.478L222.931 159.386L229.59 164.566L236.249 169.911L243.017 175.528L249.894 181.309L256.771 187.363L263.703 193.58L270.689 199.96L277.73 206.559L284.771 213.322L291.812 220.302ZM394.096 396.506L385.309 387.671L386.018 386.854L386.564 385.708L387.055 384.181L387.328 382.273L387.383 379.873L387.164 377.091L386.619 373.928L385.8 370.438L384.599 366.621L383.125 362.531L381.379 358.113L379.25 353.532L376.848 348.624L374.174 343.552L371.172 338.262L367.952 332.809L364.404 327.137L360.583 321.356L356.545 315.358L352.178 309.25L347.648 303.033L342.845 296.651L337.769 290.216L332.529 283.672L327.017 277.019L321.34 270.311L315.445 263.494L309.332 256.677L303.001 249.806L296.506 242.934L289.847 236.008L283.024 229.082L291.812 220.302L298.744 227.337L305.512 234.317L312.116 241.353L318.557 248.333L324.778 255.259L330.783 262.185L336.568 269.002L342.19 275.819L347.539 282.472L352.724 289.071L357.636 295.616L362.33 301.996L366.751 308.268L370.954 314.43L374.884 320.429L378.54 326.319L381.979 332.045L385.09 337.608L387.928 342.952L390.494 348.188L392.786 353.205L394.751 358.059L396.443 362.694L397.808 367.166L398.845 371.475L399.5 375.564L399.827 379.491L399.718 383.309L399.172 386.963L398.08 390.398L396.388 393.67L394.096 396.506ZM217.801 294.252L226.588 285.472L233.52 292.289L240.452 298.942L247.384 305.432L254.206 311.758L261.083 317.866L267.851 323.756L274.565 329.482L281.223 334.936L287.773 340.226L294.213 345.243L300.599 350.042L306.821 354.623L312.935 358.931L318.884 363.021L324.724 366.785L330.401 370.329L335.859 373.601L341.153 376.546L346.229 379.273L351.087 381.672L355.726 383.745L360.092 385.545L364.24 387.017L368.061 388.162L371.554 389.035L374.72 389.526L377.504 389.799L379.851 389.744L381.815 389.417L383.289 388.98L384.436 388.381L385.309 387.671L394.096 396.506L391.258 398.797L388.038 400.487L384.545 401.578L380.888 402.123L377.121 402.233L373.192 401.905L369.044 401.196L364.786 400.16L360.311 398.851L355.672 397.161L350.814 395.197L345.792 392.907L340.552 390.344L335.149 387.508L329.636 384.345L323.905 380.964L318.011 377.255L312.007 373.329L305.839 369.129L299.562 364.712L293.177 360.022L286.627 355.114L280.023 349.988L273.364 344.588L266.541 338.971L259.718 333.191L252.842 327.192L245.855 320.974L238.869 314.539L231.883 307.941L224.842 301.178L217.801 294.252ZM115.516 118.048L124.304 126.828L123.595 127.7L123.049 128.791L122.557 130.318L122.285 132.227L122.23 134.627L122.448 137.408L122.994 140.571L123.813 144.061L124.959 147.879L126.433 152.023L128.234 156.386L130.363 161.022L132.71 165.875L135.439 170.947L138.386 176.237L141.661 181.745L145.209 187.363L149.029 193.198L153.068 199.142L157.38 205.25L161.965 211.522L166.768 217.848L171.789 224.338L177.084 230.882L182.542 237.535L188.273 244.243L194.167 251.005L200.28 257.822L206.612 264.694L213.107 271.62L219.765 278.546L226.588 285.472L217.801 294.252L210.869 287.217L204.047 280.182L197.497 273.147L191.056 266.166L184.834 259.24L178.83 252.314L173.044 245.497L167.423 238.735L162.074 232.027L156.889 225.429L151.977 218.938L147.283 212.503L142.862 206.232L138.659 200.069L134.729 194.07L131.072 188.181L127.633 182.509L124.522 176.946L121.63 171.547L119.064 166.312L116.826 161.294L114.807 156.441L113.17 151.805L111.805 147.333L110.768 143.079L110.113 138.935L109.786 135.008L109.895 131.246L110.441 127.591L111.478 124.101L113.17 120.884L115.516 118.048Z" fill="url(#paint2_linear_619_169)"/>
<path d="M217.311 219.648L224.298 212.667L231.339 205.905L238.38 199.306L245.366 192.925L252.298 186.708L259.229 180.655L266.052 174.874L272.82 169.257L279.534 163.912L286.138 158.731L292.633 153.823L299.019 149.133L305.35 144.716L311.463 140.517L317.522 136.59L323.362 132.936L329.093 129.5L334.66 126.392L340.063 123.502L345.248 120.938L350.27 118.703L355.128 116.684L359.767 115.048L364.243 113.685L368.554 112.649L372.648 111.994L376.578 111.667L380.399 111.722L384.056 112.322L387.494 113.358L390.769 115.048L393.607 117.394L384.765 126.174L383.946 125.465L382.8 124.92L381.272 124.428L379.361 124.156L376.96 124.101L374.176 124.319L371.065 124.865L367.517 125.683L363.697 126.828L359.603 128.301L355.237 130.1L350.597 132.227L345.74 134.627L340.609 137.299L335.37 140.244L329.857 143.516L324.235 147.061L318.395 150.878L312.446 154.914L306.333 159.222L300.056 163.803L293.725 168.603L287.229 173.674L280.679 178.909L274.021 184.418L267.307 190.09L260.539 196.034L253.717 202.142L246.84 208.413L239.963 214.903L233.031 221.556L226.099 228.428L217.311 219.648ZM114.973 395.852L112.68 392.961L110.988 389.744L109.897 386.308L109.351 382.654L109.242 378.837L109.57 374.91L110.279 370.82L111.316 366.512L112.626 362.04L114.318 357.404L116.283 352.551L118.576 347.533L121.141 342.298L123.979 336.953L127.144 331.391L130.528 325.665L134.185 319.775L138.17 313.776L142.318 307.613L146.793 301.342L151.487 294.961L156.4 288.417L161.53 281.818L166.934 275.11L172.501 268.348L178.341 261.531L184.345 254.605L190.567 247.679L196.953 240.698L203.557 233.663L210.325 226.683L217.311 219.648L226.099 228.428L219.222 235.354L212.563 242.28L206.068 249.152L199.791 256.023L193.678 262.84L187.729 269.657L182.053 276.364L176.54 283.018L171.3 289.562L166.279 295.997L161.475 302.378L156.891 308.595L152.579 314.703L148.485 320.702L144.719 326.483L141.172 332.154L137.897 337.608L134.895 342.898L132.22 347.97L129.819 352.824L127.745 357.459L125.944 361.876L124.47 365.966L123.324 369.784L122.451 373.274L121.905 376.437L121.686 379.219L121.741 381.618L122.068 383.527L122.505 385.054L123.105 386.199L123.76 387.017L114.973 395.852ZM291.268 293.598L284.227 300.524L277.241 307.286L270.2 313.885L263.214 320.32L256.282 326.538L249.35 332.536L242.528 338.317L235.76 343.934L229.047 349.278L222.442 354.46L215.947 359.368L209.507 364.058L203.23 368.475L197.062 372.674L191.058 376.601L185.218 380.309L179.487 383.69L173.92 386.853L168.516 389.689L163.331 392.253L158.31 394.543L153.452 396.507L148.758 398.143L144.337 399.506L140.025 400.542L135.932 401.251L131.948 401.524L128.182 401.469L124.525 400.924L121.086 399.833L117.811 398.143L114.973 395.852L123.76 387.017L124.634 387.726L125.78 388.326L127.253 388.762L129.218 389.09H131.566L134.349 388.872L137.515 388.381L141.062 387.508L144.883 386.363L148.976 384.89L153.343 383.091L157.982 381.018L162.84 378.619L167.916 375.892L173.211 372.947L178.723 369.675L184.345 366.13L190.185 362.313L196.135 358.277L202.247 353.969L208.524 349.388L214.856 344.588L221.351 339.571L227.9 334.282L234.505 328.773L241.273 323.101L248.04 317.212L254.863 311.104L261.74 304.778L268.618 298.288L275.549 291.635L282.481 284.763L291.268 293.598ZM393.607 117.394L395.899 120.23L397.591 123.447L398.683 126.937L399.229 130.537L399.283 134.354L399.01 138.281L398.301 142.425L397.264 146.679L395.899 151.151L394.262 155.786L392.297 160.64L390.005 165.658L387.44 170.893L384.601 176.292L381.435 181.8L378.051 187.526L374.34 193.416L370.41 199.415L366.262 205.578L361.786 211.849L357.093 218.284L352.18 224.774L347.05 231.373L341.646 238.081L336.079 244.843L330.239 251.66L324.235 258.586L318.013 265.512L311.627 272.493L305.023 279.528L298.255 286.563L291.268 293.598L282.481 284.763L289.358 277.837L296.017 270.966L302.512 264.039L308.789 257.168L314.902 250.351L320.797 243.589L326.527 236.881L331.986 230.227L337.28 223.683L342.301 217.194L347.104 210.867L351.689 204.596L356.001 198.488L360.094 192.543L363.86 186.708L367.408 181.037L370.683 175.583L373.685 170.293L376.359 165.221L378.761 160.367L380.835 155.732L382.636 151.369L384.11 147.224L385.256 143.407L386.13 139.917L386.621 136.754L386.893 133.972L386.839 131.573L386.511 129.664L386.075 128.137L385.474 127.046L384.765 126.174L393.607 117.394Z" fill="url(#paint3_linear_619_169)"/>
<path d="M254.26 274.947C264.6 274.947 272.982 266.743 272.982 256.623C272.982 246.503 264.6 238.299 254.26 238.299C243.921 238.299 235.539 246.503 235.539 256.623C235.539 266.743 243.921 274.947 254.26 274.947Z" fill="url(#paint4_linear_619_169)"/>
</g>
<defs>
<filter id="filter0_i_619_169" x="0" y="0" width="520" height="518" filterUnits="userSpaceOnUse" color-interpolation-filters="sRGB">
<feFlood flood-opacity="0" result="BackgroundImageFix"/>
<feBlend mode="normal" in="SourceGraphic" in2="BackgroundImageFix" result="shape"/>
<feColorMatrix in="SourceAlpha" type="matrix" values="0 0 0 0 0 0 0 0 0 0 0 0 0 0 0 0 0 0 127 0" result="hardAlpha"/>
<feOffset dx="8" dy="6"/>
<feGaussianBlur stdDeviation="9"/>
<feComposite in2="hardAlpha" operator="arithmetic" k2="-1" k3="1"/>
<feColorMatrix type="matrix" values="0 0 0 0 0 0 0 0 0 0 0 0 0 0 0 0 0 0 0.25 0"/>
<feBlend mode="normal" in2="shape" result="effect1_innerShadow_619_169"/>
</filter>
<linearGradient id="paint0_linear_619_169" x1="512.009" y1="256.005" x2="-715.852" y2="248.889" gradientUnits="userSpaceOnUse">
<stop/>
<stop offset="1" stop-color="#3377FF"/>
</linearGradient>
<linearGradient id="paint1_linear_619_169" x1="85.3334" y1="426.489" x2="426.668" y2="426.489" gradientUnits="userSpaceOnUse">
<stop stop-color="#0069FF"/>
<stop offset="1" stop-color="white"/>
</linearGradient>
<linearGradient id="paint2_linear_619_169" x1="109.786" y1="402.233" x2="399.827" y2="402.233" gradientUnits="userSpaceOnUse">
<stop stop-color="#0069FF"/>
<stop offset="1" stop-color="white"/>
</linearGradient>
<linearGradient id="paint3_linear_619_169" x1="109.242" y1="401.524" x2="399.283" y2="401.524" gradientUnits="userSpaceOnUse">
<stop stop-color="#0069FF"/>
<stop offset="1" stop-color="white"/>
</linearGradient>
<linearGradient id="paint4_linear_619_169" x1="235.539" y1="274.947" x2="272.982" y2="274.947" gradientUnits="userSpaceOnUse">
<stop stop-color="#0069FF"/>
<stop offset="1" stop-color="white"/>
</linearGradient>
</defs>
</svg>
