<svg width="512" height="512" viewBox="0 0 512 512" fill="none" xmlns="http://www.w3.org/2000/svg">
<path d="M256 512C397.385 512 512 397.385 512 256C512 114.615 397.385 0 256 0C114.615 0 0 114.615 0 256C0 397.385 114.615 512 256 512Z" fill="url(#paint0_linear_619_182)"/>
<path d="M256.884 130.141L130.153 256.853L123.3 250.005L250.072 123.337L256.926 123.294L256.884 130.141ZM250.072 123.337C251.935 121.435 255.022 121.435 256.926 123.294C258.786 125.196 258.786 128.282 256.884 130.141L250.072 123.337ZM378.158 258.204L250.072 130.183L256.926 123.294L385.011 251.358V258.204H378.158ZM385.011 251.358C386.913 253.26 386.913 256.302 385.011 258.204C383.107 260.106 380.062 260.106 378.158 258.204L385.011 251.358ZM251.428 378.027L378.158 251.358L385.011 258.204L258.279 384.873H251.428V378.027ZM258.279 384.873C256.375 386.775 253.288 386.775 251.428 384.873C249.524 383.013 249.524 379.928 251.428 378.027L258.279 384.873ZM130.153 250.005L258.279 378.027L251.428 384.873L123.3 256.853V250.005H130.153ZM123.3 256.853C121.439 254.949 121.439 251.906 123.3 250.005C125.204 248.103 128.292 248.103 130.153 250.005L123.3 256.853Z" fill="#FEFEFE"/>
<path d="M281.926 226.506L275.117 233.311L269.743 227.984L264.372 222.83L258.999 217.8L253.669 212.938L248.383 208.206L243.136 203.598L237.933 199.202L232.774 194.933L227.698 190.876L222.705 186.946L217.756 183.225L212.936 179.719L208.196 176.338L203.544 173.21L199.06 170.251L194.662 167.503L190.432 165.01L186.329 162.685L182.394 160.614L178.629 158.755L175.033 157.106L171.608 155.712L168.435 154.57L165.474 153.683L162.767 153.049L160.314 152.626L158.156 152.457L156.295 152.499L154.814 152.711L153.63 153.091L152.784 153.514L152.107 154.063L145.297 147.259L147.496 145.441L149.992 144.131L152.699 143.328L155.491 142.905L158.452 142.821L161.498 143.074L164.713 143.581L168.012 144.384L171.481 145.441L175.077 146.709L178.841 148.273L182.733 150.006L186.794 152.034L190.939 154.232L195.252 156.641L199.694 159.304L204.263 162.136L208.915 165.179L213.696 168.433L218.56 171.856L223.51 175.492L228.544 179.295L233.703 183.311L238.865 187.453L244.109 191.805L249.439 196.286L254.769 200.977L260.142 205.795L265.557 210.742L271.014 215.854L276.47 221.096L281.926 226.506ZM361.196 363.064L354.387 356.218L354.935 355.584L355.359 354.697L355.74 353.512L355.952 352.034L355.993 350.174L355.825 348.019L355.401 345.566L354.767 342.862L353.836 339.902L352.695 336.733L351.341 333.31L349.691 329.76L347.831 325.956L345.756 322.026L343.43 317.925L340.936 313.698L338.185 309.304L335.223 304.823L332.095 300.173L328.711 295.441L325.2 290.621L321.477 285.676L317.542 280.691L313.483 275.617L309.209 270.46L304.81 265.262L300.241 259.979L295.504 254.696L290.599 249.371L285.564 244.046L280.403 238.677L275.117 233.311L281.926 226.506L287.298 231.958L292.544 237.368L297.662 242.82L302.653 248.23L307.475 253.598L312.13 258.965L316.613 264.248L320.97 269.531L325.115 274.688L329.133 279.803L332.941 284.874L336.579 289.819L340.004 294.68L343.262 299.454L346.307 304.104L349.14 308.67L351.805 313.108L354.216 317.418L356.418 321.56L358.405 325.617L360.182 329.506L361.703 333.268L363.015 336.859L364.073 340.326L364.875 343.664L365.385 346.834L365.638 349.879L365.553 352.836L365.131 355.667L364.285 358.332L362.974 360.867L361.196 363.064ZM224.568 283.816L231.377 277.012L236.749 282.295L242.122 287.451L247.493 292.481L252.781 297.384L258.111 302.119L263.355 306.683L268.558 311.12L273.72 315.348L278.796 319.447L283.787 323.335L288.736 327.053L293.559 330.606L298.296 333.943L302.906 337.113L307.434 340.029L311.832 342.777L316.062 345.312L320.166 347.594L324.098 349.708L327.865 351.568L331.459 353.175L334.843 354.57L338.059 355.711L341.019 356.598L343.727 357.274L346.18 357.654L348.338 357.866L350.157 357.825L351.678 357.571L352.821 357.232L353.709 356.766L354.387 356.218L361.196 363.064L358.997 364.839L356.501 366.151L353.794 366.994L350.959 367.419L348.04 367.501L344.995 367.248L341.782 366.699L338.481 365.897L335.014 364.883L331.417 363.571L327.653 362.05L323.762 360.275L319.7 358.288L315.511 356.091L311.24 353.638L306.797 351.02L302.231 348.145L297.577 345.103L292.798 341.848L287.934 338.425L282.985 334.789L277.908 330.986L272.788 327.012L267.629 322.828L262.341 318.474L257.053 313.995L251.723 309.346L246.308 304.528L240.896 299.54L235.481 294.427L230.024 289.185L224.568 283.816ZM145.297 147.259L152.107 154.063L151.557 154.74L151.134 155.585L150.754 156.768L150.542 158.247L150.5 160.107L150.669 162.263L151.092 164.714L151.727 167.419L152.615 170.378L153.757 173.59L155.153 176.972L156.802 180.563L158.622 184.325L160.737 188.255L163.021 192.356L165.559 196.625L168.308 200.977L171.269 205.5L174.399 210.108L177.742 214.84L181.294 219.702L185.017 224.605L188.908 229.634L193.012 234.706L197.242 239.862L201.684 245.06L206.25 250.302L210.99 255.583L215.896 260.91L220.93 266.277L226.089 271.645L231.377 277.012L224.568 283.816L219.194 278.365L213.908 272.913L208.832 267.461L203.839 262.051L199.019 256.683L194.365 251.316L189.881 246.033L185.524 240.791L181.379 235.593L177.361 230.478L173.553 225.448L169.915 220.462L166.489 215.601L163.232 210.825L160.187 206.175L157.352 201.611L154.688 197.215L152.276 192.905L150.035 188.721L148.047 184.664L146.312 180.775L144.747 177.013L143.478 173.422L142.421 169.955L141.617 166.658L141.109 163.446L140.855 160.403L140.94 157.487L141.363 154.655L142.167 151.95L143.478 149.456L145.297 147.259Z" fill="#FEFEFE"/>
<path d="M224.185 225.999L229.6 220.589L235.057 215.347L240.513 210.234L245.928 205.288L251.299 200.47L256.673 195.779L261.959 191.298L267.205 186.946L272.408 182.803L277.526 178.788L282.56 174.984L287.51 171.349L292.415 167.926L297.152 164.671L301.848 161.628L306.376 158.796L310.816 156.134L315.131 153.725L319.317 151.485L323.338 149.498L327.229 147.765L330.993 146.201L334.589 144.934L338.056 143.877L341.399 143.074L344.571 142.567L347.616 142.313L350.578 142.355L353.411 142.82L356.076 143.623L358.614 144.934L360.814 146.751L353.962 153.556L353.329 153.006L352.439 152.583L351.254 152.203L349.774 151.992L347.914 151.95L345.756 152.119L343.345 152.541L340.594 153.175L337.635 154.063L334.463 155.204L331.079 156.599L327.482 158.247L323.718 160.107L319.741 162.178L315.68 164.46L311.408 166.996L307.051 169.743L302.526 172.702L297.916 175.83L293.176 179.168L288.312 182.718L283.406 186.439L278.372 190.369L273.296 194.426L268.134 198.695L262.931 203.091L257.687 207.696L252.399 212.431L247.069 217.293L241.739 222.32L236.368 227.477L230.995 232.804L224.185 225.999ZM144.873 362.557L143.096 360.316L141.785 357.822L140.939 355.16L140.516 352.329L140.431 349.369L140.685 346.326L141.235 343.157L142.039 339.819L143.054 336.352L144.365 332.761L145.888 328.999L147.665 325.11L149.653 321.053L151.852 316.911L154.306 312.6L156.928 308.16L159.763 303.596L162.85 298.947L166.065 294.171L169.534 289.312L173.17 284.367L176.979 279.293L180.955 274.181L185.141 268.983L189.457 263.741L193.984 258.457L198.636 253.091L203.459 247.723L208.408 242.312L213.526 236.861L218.77 231.451L224.185 225.999L230.995 232.804L225.665 238.17L220.506 243.539L215.471 248.864L210.607 254.188L205.87 259.472L201.26 264.755L196.859 269.953L192.587 275.11L188.526 280.181L184.634 285.169L180.911 290.114L177.359 294.931L174.016 299.666L170.844 304.316L167.926 308.794L165.177 313.19L162.639 317.418L160.312 321.516L158.24 325.449L156.379 329.209L154.771 332.802L153.375 336.225L152.233 339.395L151.345 342.355L150.668 345.059L150.245 347.511L150.076 349.667L150.118 351.524L150.372 353.004L150.71 354.189L151.176 355.077L151.683 355.711L144.873 362.557ZM281.502 283.309L276.046 288.678L270.631 293.917L265.174 299.032L259.759 304.021L254.388 308.838L249.015 313.488L243.729 317.967L238.482 322.321L233.279 326.463L228.162 330.476L223.127 334.282L218.136 337.917L213.272 341.341L208.491 344.593L203.839 347.638L199.314 350.51L194.872 353.131L190.556 355.584L186.37 357.781L182.35 359.768L178.459 361.543L174.694 363.064L171.057 364.332L167.63 365.388L164.289 366.192L161.116 366.741L158.028 366.953L155.109 366.911L152.275 366.487L149.61 365.641L147.073 364.332L144.873 362.557L151.683 355.711L152.36 356.259L153.248 356.725L154.39 357.061L155.913 357.315H157.732L159.889 357.147L162.343 356.766L165.092 356.091L168.053 355.204L171.225 354.063L174.609 352.668L178.205 351.061L181.969 349.201L185.905 347.087L190.008 344.805L194.279 342.269L198.636 339.522L203.161 336.564L207.774 333.436L212.512 330.096L217.376 326.546L222.281 322.828L227.316 318.939L232.392 314.838L237.509 310.572L242.756 306.176L248 301.609L253.289 296.877L258.618 291.974L263.948 286.944L269.319 281.788L274.693 276.463L281.502 283.309ZM360.814 146.751L362.591 148.949L363.903 151.442L364.749 154.147L365.173 156.937L365.214 159.896L365.002 162.939L364.454 166.151L363.649 169.447L362.591 172.912L361.323 176.506L359.799 180.268L358.022 184.157L356.035 188.214L353.836 192.397L351.383 196.666L348.76 201.104L345.883 205.668L342.837 210.317L339.622 215.094L336.155 219.955L332.517 224.941L328.709 229.971L324.732 235.086L320.546 240.284L316.231 245.526L311.705 250.807L307.051 256.175L302.229 261.544L297.279 266.954L292.162 272.406L286.917 277.857L281.502 283.309L274.693 276.463L280.022 271.094L285.181 265.769L290.216 260.403L295.08 255.076L299.817 249.793L304.386 244.553L308.828 239.355L313.059 234.198L317.162 229.125L321.053 224.097L324.776 219.194L328.328 214.333L331.671 209.598L334.843 204.993L337.761 200.47L340.511 196.074L343.05 191.849L345.376 187.748L347.448 183.818L349.308 180.056L350.917 176.464L352.312 173.083L353.455 169.87L354.343 166.911L355.021 164.207L355.401 161.755L355.611 159.6L355.569 157.74L355.316 156.261L354.977 155.077L354.511 154.232L353.962 153.556L360.814 146.751Z" fill="#FEFEFE"/>
<path d="M252.823 268.856C260.835 268.856 267.332 262.498 267.332 254.654C267.332 246.811 260.835 240.452 252.823 240.452C244.809 240.452 238.314 246.811 238.314 254.654C238.314 262.498 244.809 268.856 252.823 268.856Z" fill="#FEFEFE"/>
<defs>
<linearGradient id="paint0_linear_619_182" x1="512.01" y1="256.005" x2="0" y2="256.005" gradientUnits="userSpaceOnUse">
<stop stop-color="#D717FF"/>
<stop offset="1" stop-color="#3377FF"/>
</linearGradient>
</defs>
</svg>
