<svg width="513" height="512" viewBox="0 0 513 512" fill="none" xmlns="http://www.w3.org/2000/svg">
<path fill-rule="evenodd" clip-rule="evenodd" d="M259.121 0C260.505 0 261.87 0.0390261 263.235 0.0585392C309.504 33.5625 327.111 76.3156 322.646 126.191L257.893 62.071L188.733 130.562C143.224 99.7508 107.328 86.4624 94.6928 98.9898C82.0579 111.498 95.4727 147.031 126.592 192.106L66.0889 252.011C44.8749 259.992 23.5048 268.656 2.31029 277.69C1.66685 270.295 1.29639 262.821 1.29639 255.27C1.29639 114.288 116.726 0 259.121 0Z" fill="url(#paint0_linear_619_184)"/>
<path fill-rule="evenodd" clip-rule="evenodd" d="M0.0278224 252.812C0.0473206 251.446 0.105815 250.1 0.144812 248.734C34.6566 203.425 78.0986 186.605 128.384 191.756L62.7145 254.92L130.861 324.386C99.0787 368.993 85.157 404.351 97.6163 417.034C110.056 429.737 146.147 416.976 192.105 386.809L251.711 447.572C259.49 468.705 267.914 489.974 276.746 511.107C269.259 511.634 261.713 511.868 254.07 511.77C111.714 509.721 -2.01949 393.794 0.0278224 252.812Z" fill="url(#paint1_linear_619_184)"/>
<path fill-rule="evenodd" clip-rule="evenodd" d="M252.901 511.999C251.517 511.999 250.152 511.98 248.787 511.96C202.518 478.437 184.911 435.684 189.376 385.808L254.13 449.928L323.27 381.457C368.779 412.248 404.695 425.537 417.33 413.029C429.964 400.502 416.55 364.968 385.431 319.913L445.933 260.008C467.147 252.007 488.518 243.363 509.712 234.309C510.355 241.704 510.706 249.178 510.706 256.749C510.706 397.711 395.277 511.999 252.901 511.999Z" fill="url(#paint2_linear_619_184)"/>
<path fill-rule="evenodd" clip-rule="evenodd" d="M511.974 259.188C511.954 260.554 511.915 261.901 511.876 263.267C477.364 308.595 433.922 325.396 383.636 320.264L449.306 257.081L381.16 187.614C412.923 143.008 426.864 107.65 414.405 94.9664C401.945 82.283 365.874 95.0445 319.916 125.192L260.291 64.4285C252.531 43.3154 244.107 22.0266 235.275 0.913478C242.742 0.367112 250.308 0.132955 257.932 0.250034C400.307 2.27939 514.04 118.226 511.974 259.188Z" fill="url(#paint3_linear_619_184)"/>
<path fill-rule="evenodd" clip-rule="evenodd" d="M214.178 253.298L252.784 215.072C255.299 212.594 259.394 212.594 261.909 215.072L300.516 253.298C303.031 255.776 303.031 259.854 300.516 262.333L261.909 300.559C259.414 303.056 255.299 303.056 252.784 300.559L214.178 262.333C211.662 259.854 211.662 255.776 214.178 253.298Z" fill="url(#paint4_linear_619_184)"/>
<defs>
<linearGradient id="paint0_linear_619_184" x1="162.307" y1="0" x2="162.307" y2="277.69" gradientUnits="userSpaceOnUse">
<stop stop-color="#FA3CFF"/>
<stop offset="1" stop-color="#0069FF"/>
</linearGradient>
<linearGradient id="paint1_linear_619_184" x1="138.373" y1="190.86" x2="138.373" y2="511.792" gradientUnits="userSpaceOnUse">
<stop stop-color="#FA3CFF"/>
<stop offset="1" stop-color="#0069FF"/>
</linearGradient>
<linearGradient id="paint2_linear_619_184" x1="349.706" y1="234.309" x2="349.706" y2="511.999" gradientUnits="userSpaceOnUse">
<stop stop-color="#FA3CFF"/>
<stop offset="1" stop-color="#0069FF"/>
</linearGradient>
<linearGradient id="paint3_linear_619_184" x1="373.638" y1="0.220581" x2="373.638" y2="321.155" gradientUnits="userSpaceOnUse">
<stop stop-color="#FA3CFF"/>
<stop offset="1" stop-color="#0069FF"/>
</linearGradient>
<linearGradient id="paint4_linear_619_184" x1="257.347" y1="213.213" x2="257.347" y2="302.432" gradientUnits="userSpaceOnUse">
<stop stop-color="#FA3CFF"/>
<stop offset="1" stop-color="#0069FF"/>
</linearGradient>
</defs>
</svg>
